<?xml version="1.0" encoding="UTF-8"?>
<!DOCTYPE svg PUBLIC "-//W3C//DTD SVG 1.1//EN" "http://www.w3.org/Graphics/SVG/1.1/DTD/svg11.dtd">
<!-- Creator: CorelDRAW -->
<svg xmlns="http://www.w3.org/2000/svg" xml:space="preserve" width="25mm" height="25mm" version="1.1" style="shape-rendering:geometricPrecision; text-rendering:geometricPrecision; image-rendering:optimizeQuality; fill-rule:evenodd; clip-rule:evenodd"
viewBox="0 0 2500 2500"
 xmlns:xlink="http://www.w3.org/1999/xlink"
 xmlns:xodm="http://www.corel.com/coreldraw/odm/2003">
 <defs>
  <style type="text/css">
   <![CDATA[
    .fil4 {fill:darkgreen}
    .fil3 {fill:midnightblue}
    .fil5 {fill:midnightblue}
    .fil0 {fill:goldenrod}
    .fil2 {fill:goldenrod}
    .fil1 {fill:red}
   ]]>
  </style>
    <mask id="id0">
  <linearGradient id="id1" gradientUnits="userSpaceOnUse" x1="1354.27" y1="1711.51" x2="2608.49" y2="1213.65">
   <stop offset="0" style="stop-opacity:1; stop-color:white"/>
   <stop offset="0.180392" style="stop-opacity:0.984314; stop-color:white"/>
   <stop offset="1" style="stop-opacity:0.964706; stop-color:white"/>
  </linearGradient>
     <rect style="fill:url(#id1)" x="66.07" y="103.66" width="2361.72" height="1393.88"/>
    </mask>
    <mask id="id2">
  <linearGradient id="id3" gradientUnits="userSpaceOnUse" x1="1347.37" y1="506.05" x2="-156.95" y2="409.24">
   <stop offset="0" style="stop-opacity:0.0901961; stop-color:white"/>
   <stop offset="0.109804" style="stop-opacity:0.529412; stop-color:white"/>
   <stop offset="1" style="stop-opacity:0.964706; stop-color:white"/>
  </linearGradient>
     <rect style="fill:url(#id3)" x="66.07" y="103.66" width="2361.72" height="1393.88"/>
    </mask>
    <mask id="id4">
  <linearGradient id="id5" gradientUnits="userSpaceOnUse" x1="2037.03" y1="1427.9" x2="2140.19" y2="159">
   <stop offset="0" style="stop-opacity:0.0901961; stop-color:white"/>
   <stop offset="0.109804" style="stop-opacity:0.529412; stop-color:white"/>
   <stop offset="1" style="stop-opacity:0.964706; stop-color:white"/>
  </linearGradient>
     <rect style="fill:url(#id5)" x="513.2" y="104.01" width="1914.53" height="1519"/>
    </mask>
    <mask id="id6">
  <linearGradient id="id7" gradientUnits="userSpaceOnUse" x1="2032.97" y1="321.54" x2="-12.71" y2="1344.37">
   <stop offset="0" style="stop-opacity:0; stop-color:white"/>
   <stop offset="0.25098" style="stop-opacity:0.501961; stop-color:white"/>
   <stop offset="1" style="stop-opacity:1; stop-color:white"/>
  </linearGradient>
     <rect style="fill:url(#id7)" x="66.07" y="1008.61" width="2361.72" height="1393.88"/>
    </mask>
    <mask id="id8">
  <linearGradient id="id9" gradientUnits="userSpaceOnUse" x1="1154.02" y1="2796.61" x2="2204.36" y2="2886.05">
   <stop offset="0" style="stop-opacity:0; stop-color:white"/>
   <stop offset="0.14902" style="stop-opacity:0.501961; stop-color:white"/>
   <stop offset="1" style="stop-opacity:1; stop-color:white"/>
  </linearGradient>
     <rect style="fill:url(#id9)" x="66.07" y="1008.61" width="2361.72" height="1393.88"/>
    </mask>
    <mask id="id10">
  <linearGradient id="id11" gradientUnits="userSpaceOnUse" x1="1016.77" y1="987.46" x2="171.04" y2="1492.55">
   <stop offset="0" style="stop-opacity:0; stop-color:white"/>
   <stop offset="0.14902" style="stop-opacity:0.501961; stop-color:white"/>
   <stop offset="1" style="stop-opacity:1; stop-color:white"/>
  </linearGradient>
     <rect style="fill:url(#id11)" x="66.43" y="993.86" width="1420.63" height="1408.28"/>
    </mask>
 </defs>
 <g id="Camada_1">
  <metadata id="CorelCorpID_0Corel-Layer"/>
  <g id="Grupo_6">
   <path class="fil0" style="mask:url(#id0)" d="M76.11 114.01c336.37,-6.66 638.26,83.3 887.02,321.96 -473.5,211.94 -68.36,817.35 329.92,315.58 85.11,-107.24 195.92,-250.62 365.65,-419.74 168.53,-167.94 537.3,-215.93 736.79,-217.8 150.07,644 -464.51,1707.77 -1635.57,1271.4 -305.04,-113.67 -688.17,-426.45 -683.81,-1271.4z"/>
   <path class="fil1" style="mask:url(#id2)" d="M76.11 114.01c336.37,-6.66 638.26,83.3 887.02,321.96 -473.5,211.94 -68.36,817.35 329.92,315.58 85.11,-107.24 195.92,-250.62 365.65,-419.74 168.53,-167.94 537.3,-215.93 736.79,-217.8 150.07,644 -464.51,1707.77 -1635.57,1271.4 -305.04,-113.67 -688.17,-426.45 -683.81,-1271.4z"/>
   <path class="fil2" style="mask:url(#id4)" d="M523.2 1257.19c15.15,-13.62 129.41,-105.41 368.08,-193.97 171.26,-63.55 351.87,-241.54 400.19,-319.52 72.11,-116.36 195.93,-250.62 365.65,-419.74 168.53,-167.93 538.88,-208.08 738.37,-209.95 84.32,361.83 -73.45,852.77 -435.44,1136.73 -193.81,152.04 -482.12,379.45 -787.24,361.24 -298.47,-23.33 -477.04,-235.91 -649.61,-354.79z"/>
   <path class="fil3" style="mask:url(#id6)" d="M2417.75 2392.14c-336.38,6.65 -638.26,-83.31 -887.02,-321.96 473.5,-211.94 68.36,-817.35 -329.92,-315.58 -85.11,107.24 -195.92,250.62 -365.65,419.74 -168.54,167.94 -537.3,215.93 -736.79,217.8 -150.07,-644 464.51,-1707.77 1635.56,-1271.4 305.04,113.67 688.18,426.44 683.82,1271.4z"/>
   <path class="fil4" style="mask:url(#id8)" d="M2417.75 2392.14c-336.38,6.65 -638.26,-83.31 -887.02,-321.96 473.5,-211.94 68.36,-817.35 -329.92,-315.58 -85.11,107.24 -195.92,250.62 -365.65,419.74 -168.54,167.94 -537.3,215.93 -736.79,217.8 -150.07,-644 464.51,-1707.77 1635.56,-1271.4 305.04,113.67 688.18,426.44 683.82,1271.4z"/>
   <path class="fil5" style="mask:url(#id10)" d="M1474.27 1558.33c-17.18,17.68 -100.96,1.85 -263.15,183.08 -91.3,102.02 -195.93,250.62 -365.65,419.74 -168.54,167.94 -547.61,229.12 -747.1,230.99 -109.75,-470.96 196.35,-1192.96 826.57,-1348.46 525.65,-129.7 565.67,61.52 549.33,514.65z"/>
  </g>
 </g>
</svg>
